<svg xmlns="http://www.w3.org/2000/svg" viewBox="0 0 200.52 200.55"><defs><style>.cls-1{fill:#bb0723;}</style></defs><g id="Camada_2" data-name="Camada 2"><g id="Camada_1-2" data-name="Camada 1"><path d="M78.82,81.29c-.08,2.24-.06,4.49,0,6.73,0,1-.31,1.23-1.25,1.22-4.2,0-8.39,0-12.59,0-1.05,0-1.43.28-1.34,1.35a18.27,18.27,0,0,1,0,3c-.07,1,.23,1.3,1.26,1.29,4.2-.06,8.39,0,12.58,0,1,0,1.37.19,1.34,1.24-.07,2.33,0,4.66,0,7,0,.91-.23,1.24-1.21,1.23-4.15-.06-8.31,0-12.46-.06-1.27,0-1.6.38-1.5,1.57a20,20,0,0,1,0,3.55c-.14,1.3.4,1.53,1.57,1.51,4-.06,8.06,0,12.08-.05,1.27,0,1.58.39,1.53,1.58-.08,2.37,0,4.74,0,7.12,0,.8-.25,1.1-1.09,1.09q-11.89,0-23.78,0c-1.11,0-1.1-.57-1.1-1.35q0-9.6,0-19.2c0-6.27,0-12.54,0-18.81,0-1.19.37-1.48,1.51-1.47,7.67,0,15.34,0,23,0C78.54,79.78,78.86,80.15,78.82,81.29Z"/><path d="M107,99.92a2.49,2.49,0,0,0,.27-1.63c0-5.51,0-11,0-16.54,0-2.29-.12-1.92,2-1.93,2.55,0,5.09,0,7.63,0,.76,0,1.16.14,1.15,1q0,19.57,0,39.17c0,.16,0,.32-.1.77l-24.2-20.15c-.45.5-.27,1-.27,1.42,0,5.76,0,11.52,0,17.29,0,1-.31,1.3-1.3,1.28-2.75-.06-5.51,0-8.27,0-.75,0-1.15-.13-1.15-1q0-19.59,0-39.17a6.29,6.29,0,0,1,.12-.73Z"/><path d="M121.94,119.1c.08-2.16.07-4.32,0-6.48,0-1.12.23-1.53,1.45-1.51,4.19.08,8.39,0,12.58.06,1,0,1.34-.32,1.27-1.3a19,19,0,0,1,0-2.92c.1-1.08-.22-1.45-1.38-1.43-4.2.07-8.39,0-12.59,0-1.08,0-1.37-.32-1.33-1.36.07-2.29.06-4.58,0-6.86,0-.94.23-1.25,1.21-1.24,4.23,0,8.47,0,12.71,0,1.16,0,1.46-.35,1.38-1.43a30.27,30.27,0,0,1,0-3.81c.07-1-.25-1.4-1.34-1.38-4.19.06-8.38,0-12.58,0-1,0-1.42-.23-1.38-1.33.07-2.45,0-4.91,0-7.37,0-.84.28-1.08,1.1-1.08,7.92,0,15.85,0,23.77,0,1,0,1.1.39,1.1,1.21,0,6.4,0,12.8,0,19.2s0,12.54,0,18.81c0,1.1-.2,1.54-1.44,1.53q-11.56-.09-23.14,0C122.22,120.55,121.89,120.21,121.94,119.1Z"/><path d="M196.16,129.82a98.43,98.43,0,0,1-19.34,35.32,99.93,99.93,0,0,1-50.3,32,96.65,96.65,0,0,1-20.41,3.28c-21,1.14-40.55-3.55-58.33-14.68-23.25-14.55-38.35-35.26-45-61.93A95.61,95.61,0,0,1,.48,91.21Q.89,87,1.57,82.77A2.35,2.35,0,0,1,2,81.5c2.27,1.82,4.56,3.62,6.8,5.48q7.4,6.13,14.73,12.33c.71.6,1.1.56,1.78,0q10.76-9,21.55-18a6,6,0,0,1,1.63-1.17c.31.35.17.75.17,1.1,0,12.72,0,25.44,0,38.16,0,1.21-.38,1.48-1.51,1.45-2.67-.07-5.34-.06-8,0-.95,0-1.22-.27-1.21-1.23,0-5.8,0-11.61,0-17.42v-1.51a4.86,4.86,0,0,0-1.65,1.14c-3.67,3.07-7.35,6.15-11,9.27a1.23,1.23,0,0,1-1.93,0c-3.76-3.23-7.56-6.41-11.36-9.6-.28-.24-.54-.66-.94-.52s-.23.59-.22.91c.3,16.6,4.46,32.09,13.64,46,11.18,17,25.74,29.94,45.2,36.59,23.84,8.13,47.44,7.53,70.12-3.9,24-12.08,39.61-31.32,46.93-57.21.19-.64.37-1.29.57-1.95a5.22,5.22,0,0,1,1.8,1.29c2.17,1.82,4.31,3.69,6.49,5.51A1.35,1.35,0,0,1,196.16,129.82Z"/><path d="M200.52,101.47a114.11,114.11,0,0,1-1.58,16.8c-.06.33-.16.65-.27,1.06a6.07,6.07,0,0,1-1.86-1.34c-6.38-5.58-12.88-11-19.4-16.44a1.49,1.49,0,0,0-2.34,0q-10.83,9.14-21.75,18.18c-.38.31-.68.76-1.24.82a2.07,2.07,0,0,1-.14-1.24c0-12.68,0-25.36,0-38,0-1.26.36-1.57,1.56-1.53,2.62.09,5.25.08,7.88,0,1.09,0,1.34.34,1.33,1.37,0,5.77,0,11.53,0,17.3v1.35c.53.17.7-.2.94-.4,3.86-3.25,7.73-6.48,11.54-9.78a1.42,1.42,0,0,1,2.25,0c3.65,3.17,7.36,6.26,11.06,9.37.31.26.6.81,1,.64s.25-.83.24-1.26a87.26,87.26,0,0,0-14.35-46.75C160.59,28.91,139.53,16,113,11.68,90.77,8.09,70.35,13.26,51.54,25.31,32,37.82,19.78,55.67,13.59,77.85c-.42,1.47-.41,1.48-1.55.56-2.37-1.92-4.73-3.86-7.11-5.77a1.39,1.39,0,0,1-.58-1.73A98.88,98.88,0,0,1,31.24,27.54,97.43,97.43,0,0,1,64.83,6.47,101.24,101.24,0,0,1,128.49,4,100.44,100.44,0,0,1,197,74a97.75,97.75,0,0,1,3.36,21.16C200.46,97.24,200.53,99.35,200.52,101.47Z"/><path class="cls-1" d="M196.16,129.82a98.43,98.43,0,0,1-19.34,35.32,99.93,99.93,0,0,1-50.3,32,96.65,96.65,0,0,1-20.41,3.28c-21,1.14-40.55-3.55-58.33-14.68-23.25-14.55-38.35-35.26-45-61.93A95.61,95.61,0,0,1,.48,91.21Q.89,87,1.57,82.77A2.35,2.35,0,0,1,2,81.5c2.27,1.82,4.56,3.62,6.8,5.48q7.4,6.13,14.73,12.33c.71.6,1.1.56,1.78,0q10.76-9,21.55-18a6,6,0,0,1,1.63-1.17c.31.35.17.75.17,1.1,0,12.72,0,25.44,0,38.16,0,1.21-.38,1.48-1.51,1.45-2.67-.07-5.34-.06-8,0-.95,0-1.22-.27-1.21-1.23,0-5.8,0-11.61,0-17.42v-1.51a4.86,4.86,0,0,0-1.65,1.14c-3.67,3.07-7.35,6.15-11,9.27a1.23,1.23,0,0,1-1.93,0c-3.76-3.23-7.56-6.41-11.36-9.6-.28-.24-.54-.66-.94-.52s-.23.59-.22.91c.3,16.6,4.46,32.09,13.64,46,11.18,17,25.74,29.94,45.2,36.59,23.84,8.13,47.44,7.53,70.12-3.9,24-12.08,39.61-31.32,46.93-57.21.19-.64.37-1.29.57-1.95a5.22,5.22,0,0,1,1.8,1.29c2.17,1.82,4.31,3.69,6.49,5.51A1.35,1.35,0,0,1,196.16,129.82Z"/><path class="cls-1" d="M200.52,101.47a114.11,114.11,0,0,1-1.58,16.8c-.06.33-.16.65-.27,1.06a6.07,6.07,0,0,1-1.86-1.34c-6.38-5.58-12.88-11-19.4-16.44a1.49,1.49,0,0,0-2.34,0q-10.83,9.14-21.75,18.18c-.38.31-.68.76-1.24.82a2.07,2.07,0,0,1-.14-1.24c0-12.68,0-25.36,0-38,0-1.26.36-1.57,1.56-1.53,2.62.09,5.25.08,7.88,0,1.09,0,1.34.34,1.33,1.37,0,5.77,0,11.53,0,17.3v1.35c.53.17.7-.2.94-.4,3.86-3.25,7.73-6.48,11.54-9.78a1.42,1.42,0,0,1,2.25,0c3.65,3.17,7.36,6.26,11.06,9.37.31.26.6.81,1,.64s.25-.83.24-1.26a87.26,87.26,0,0,0-14.35-46.75C160.59,28.91,139.53,16,113,11.68,90.77,8.09,70.35,13.26,51.54,25.31,32,37.82,19.78,55.67,13.59,77.85c-.42,1.47-.41,1.48-1.55.56-2.37-1.92-4.73-3.86-7.11-5.77a1.39,1.39,0,0,1-.58-1.73A98.88,98.88,0,0,1,31.24,27.54,97.43,97.43,0,0,1,64.83,6.47,101.24,101.24,0,0,1,128.49,4,100.44,100.44,0,0,1,197,74a97.75,97.75,0,0,1,3.36,21.16C200.46,97.24,200.53,99.35,200.52,101.47Z"/><path class="cls-1" d="M118.07,80.84q0,19.57,0,39.17c0,.16,0,.32-.1.77l-24.2-20.15c-.45.5-.27,1-.27,1.42,0,5.76,0,11.52,0,17.29,0,1-.31,1.3-1.3,1.28-2.75-.06-5.51,0-8.27,0-.75,0-1.15-.13-1.15-1q0-19.59,0-39.17a6.29,6.29,0,0,1,.12-.73L107,99.92a2.49,2.49,0,0,0,.27-1.63c0-5.51,0-11,0-16.54,0-2.29-.12-1.92,2-1.93,2.55,0,5.09,0,7.63,0C117.68,79.79,118.08,79.94,118.07,80.84Z"/><path class="cls-1" d="M78.82,112.4c-.08,2.37,0,4.74,0,7.12,0,.8-.25,1.1-1.09,1.09q-11.89,0-23.78,0c-1.11,0-1.1-.57-1.1-1.35q0-9.6,0-19.2c0-6.27,0-12.54,0-18.81,0-1.19.37-1.48,1.51-1.47,7.67,0,15.34,0,23,0,1.2,0,1.52.37,1.48,1.51-.08,2.24-.06,4.49,0,6.73,0,1-.31,1.23-1.25,1.22-4.2,0-8.39,0-12.59,0-1.05,0-1.43.28-1.34,1.35a18.27,18.27,0,0,1,0,3c-.07,1,.23,1.3,1.26,1.29,4.2-.06,8.39,0,12.58,0,1,0,1.37.19,1.34,1.24-.07,2.33,0,4.66,0,7,0,.91-.23,1.24-1.21,1.23-4.15-.06-8.31,0-12.46-.06-1.27,0-1.6.38-1.5,1.57a20,20,0,0,1,0,3.55c-.14,1.3.4,1.53,1.57,1.51,4-.06,8.06,0,12.08-.05C78.56,110.79,78.87,111.21,78.82,112.4Z"/><path class="cls-1" d="M147.93,119c0,1.1-.2,1.54-1.44,1.53q-11.56-.09-23.14,0c-1.13,0-1.46-.33-1.41-1.44.08-2.16.07-4.32,0-6.48,0-1.12.23-1.53,1.45-1.51,4.19.08,8.39,0,12.58.06,1,0,1.34-.32,1.27-1.3a19,19,0,0,1,0-2.92c.1-1.08-.22-1.45-1.38-1.43-4.2.07-8.39,0-12.59,0-1.08,0-1.37-.32-1.33-1.36.07-2.29.06-4.58,0-6.86,0-.94.23-1.25,1.21-1.24,4.23,0,8.47,0,12.71,0,1.16,0,1.46-.35,1.38-1.43a30.27,30.27,0,0,1,0-3.81c.07-1-.25-1.4-1.34-1.38-4.19.06-8.38,0-12.58,0-1,0-1.42-.23-1.38-1.33.07-2.45,0-4.91,0-7.37,0-.84.28-1.08,1.1-1.08,7.92,0,15.85,0,23.77,0,1,0,1.1.39,1.1,1.21,0,6.4,0,12.8,0,19.2S147.88,112.74,147.93,119Z"/></g></g></svg>